<?xml version="1.0" encoding="UTF-8"?><svg xmlns="http://www.w3.org/2000/svg" xmlns:xlink="http://www.w3.org/1999/xlink" viewBox="0 0 224.15 176.09"><defs><style>.e{fill:url(#d);}.f{fill:none;stroke:#000;stroke-width:2px;}</style><radialGradient id="d" cx="-690.66" cy="926.02" fx="-690.66" fy="926.02" r="1" gradientTransform="translate(-90970.68 56677.51) rotate(90) scale(81.94 -98.37)" gradientUnits="userSpaceOnUse"><stop offset=".12" stop-color="#fff"/><stop offset=".44" stop-color="#0047ff"/><stop offset=".84" stop-color="#fff"/></radialGradient></defs><g id="a"/><g id="b"><g id="c"><g><g><path class="e" d="M73.68,67.73C-46.36-29.69,97.41-1.9,119.47,35.18c34.77-81.1,132.01,11.28,16.64,42.69,158.6-12.17,66.48,87.14-9.71,28.8,92.15,73.3-3.25,79.25-29.29,7.2,0,39-69.58-18.13-23-20-49.22-14.77-44.04-39.91-.43-26.14Z" shape-rendering="crispEdges"/><path class="f" d="M80.11,72.87C-79.89-53.13,174.71,15.89,112.11,59.87c24-122,149.22-16.09,24,18,160.19-12.29,64.6,89.14-12,27,96,75-.75,81.64-27,9,0,39-69.58-18.13-23-20-50.48-15.15-43.74-41.2,3-25" shape-rendering="crispEdges"/></g><g><path d="M7.22,67.5h12.29l5.04,20.6h.43l11.86-20.6h12.29l-6.04,36.36h-9.66l3.48-21.02h-.28l-11.51,20.74h-5.82l-4.62-20.88h-.28l-3.55,21.16H1.18l6.04-36.36Zm52.05,23.86l10.09-14.77h9.23l-4.55,27.27h-9.23l2.49-14.84-10.09,14.84h-9.23l4.55-27.27h9.23l-2.49,14.77Zm18.11,22.73l6.29-37.5h9.73l-.78,4.76h.21c.5-.92,1.15-1.77,1.95-2.54,.82-.78,1.78-1.4,2.88-1.86,1.11-.47,2.34-.71,3.69-.71,1.8,0,3.43,.48,4.88,1.44,1.46,.96,2.53,2.47,3.21,4.53,.69,2.06,.76,4.73,.21,8.03-.52,3.15-1.45,5.76-2.79,7.83-1.33,2.07-2.89,3.62-4.69,4.63-1.79,1.02-3.65,1.53-5.59,1.53-1.28,0-2.39-.21-3.32-.62-.94-.43-1.69-1-2.25-1.72-.57-.73-.96-1.56-1.17-2.49h-.21l-2.41,14.7h-9.84Zm13.6-23.86c-.21,1.33-.23,2.47-.05,3.44,.19,.96,.56,1.7,1.12,2.24,.57,.52,1.3,.78,2.2,.78s1.7-.25,2.41-.76c.71-.52,1.31-1.26,1.81-2.22,.5-.97,.86-2.13,1.1-3.48,.21-1.35,.23-2.5,.05-3.46-.18-.97-.54-1.71-1.08-2.22-.54-.52-1.27-.78-2.17-.78s-1.72,.26-2.47,.78c-.73,.51-1.36,1.25-1.86,2.22-.5,.96-.85,2.11-1.07,3.46Zm23.97,23.86c-1.14,0-2.2-.09-3.18-.27-.98-.17-1.84-.4-2.57-.69l3.3-6.96c.76,.28,1.46,.47,2.1,.55,.65,.08,1.22,.03,1.72-.14,.5-.18,.91-.51,1.22-1.01l.32-.5-4.86-28.48h9.87l1.24,18.89h.28l7.64-18.89h10.65l-14.84,29.55c-.76,1.5-1.71,2.85-2.84,4.05-1.12,1.21-2.51,2.16-4.15,2.86-1.65,.7-3.61,1.05-5.9,1.05ZM7.22,128.5h12.29l5.04,20.6h.43l11.86-20.6h12.29l-6.04,36.36h-9.66l3.48-21.02h-.28l-11.51,20.74h-5.82l-4.62-20.88h-.28l-3.55,21.16H1.18l6.04-36.36Zm52.05,23.86l10.09-14.77h9.23l-4.55,27.27h-9.23l2.49-14.84-10.09,14.84h-9.23l4.55-27.27h9.23l-2.49,14.77Zm18.11,22.73l6.29-37.5h9.73l-.78,4.76h.21c.5-.92,1.15-1.77,1.95-2.54,.82-.78,1.78-1.4,2.88-1.87,1.11-.47,2.34-.71,3.69-.71,1.8,0,3.43,.48,4.88,1.44,1.46,.96,2.53,2.47,3.21,4.53,.69,2.06,.76,4.74,.21,8.03-.52,3.15-1.45,5.76-2.79,7.83-1.33,2.07-2.89,3.62-4.69,4.63-1.79,1.02-3.65,1.53-5.59,1.53-1.28,0-2.39-.21-3.32-.62-.94-.43-1.69-1-2.25-1.72-.57-.73-.96-1.56-1.17-2.49h-.21l-2.41,14.7h-9.84Zm13.6-23.86c-.21,1.32-.23,2.47-.05,3.44,.19,.96,.56,1.71,1.12,2.24,.57,.52,1.3,.78,2.2,.78s1.7-.25,2.41-.76c.71-.52,1.31-1.26,1.81-2.22,.5-.97,.86-2.13,1.1-3.48,.21-1.35,.23-2.5,.05-3.46-.18-.97-.54-1.71-1.08-2.22-.54-.52-1.27-.78-2.17-.78s-1.72,.26-2.47,.78c-.73,.51-1.36,1.25-1.86,2.22-.5,.96-.85,2.11-1.07,3.46Z"/><path d="M7.22,67.5v-1h-.85l-.14,.84,.99,.16Zm12.29,0l.97-.24-.19-.76h-.78v1Zm5.04,20.6l-.97,.24,.19,.76h.78v-1Zm.43,0v1h.58l.29-.5-.87-.5Zm11.86-20.6v-1h-.58l-.29,.5,.87,.5Zm12.29,0l.99,.16,.19-1.16h-1.18v1Zm-6.04,36.36v1h.85l.14-.84-.99-.16Zm-9.66,0l-.99-.16-.19,1.16h1.18v-1Zm3.48-21.02l.99,.16,.19-1.16h-1.18v1Zm-.28,0v-1h-.59l-.29,.51,.87,.49Zm-11.51,20.74v1h.59l.29-.52-.87-.48Zm-5.82,0l-.98,.22,.17,.78h.8v-1Zm-4.62-20.88l.98-.22-.17-.78h-.8v1Zm-.28,0v-1h-.85l-.14,.83,.99,.17Zm-3.55,21.16v1h.85l.14-.83-.99-.17Zm-9.66,0l-.99-.16-.19,1.16H1.18v-1Zm6.04-35.36h12.29v-2H7.22v2Zm11.32-.76l5.04,20.6,1.94-.48-5.04-20.6-1.94,.48Zm6.01,21.36h.43v-2h-.43v2Zm1.29-.5l11.86-20.6-1.73-1-11.86,20.6,1.73,1Zm10.99-20.1h12.29v-2h-12.29v2Zm11.3-1.16l-6.04,36.36,1.97,.33,6.04-36.36-1.97-.33Zm-5.05,35.53h-9.66v2h9.66v-2Zm-8.67,1.16l3.48-21.02-1.97-.33-3.48,21.02,1.97,.33Zm2.49-22.19h-.28v2h.28v-2Zm-1.16,.51l-11.51,20.74,1.75,.97,11.51-20.74-1.75-.97Zm-10.63,20.22h-5.82v2h5.82v-2Zm-4.85,.78l-4.62-20.88-1.95,.43,4.62,20.88,1.95-.43Zm-5.59-21.66h-.28v2h.28v-2Zm-1.27,.83l-3.55,21.17,1.97,.33,3.55-21.16-1.97-.33Zm-2.56,20.33H1.18v2H10.84v-2Zm-8.67,1.16l6.04-36.36-1.97-.33L.19,103.7l1.97,.33Zm57.1-12.66l-.99-.17,1.81,.73-.83-.56Zm10.09-14.77v-1h-.53l-.3,.44,.83,.56Zm9.23,0l.99,.16,.19-1.16h-1.18v1Zm-4.55,27.27v1h.85l.14-.84-.99-.16Zm-9.23,0l-.99-.17-.2,1.17h1.18v-1Zm2.49-14.84l.99,.17-1.81-.73,.83,.56Zm-10.09,14.84v1h.53l.3-.44-.83-.56Zm-9.23,0l-.99-.16-.19,1.16h1.18v-1Zm4.55-27.27v-1h-.85l-.14,.84,.99,.16Zm9.23,0l.99,.17,.2-1.17h-1.18v1Zm-1.66,15.34l10.09-14.77-1.65-1.13-10.09,14.77,1.65,1.13Zm9.26-14.34h9.23v-2h-9.23v2Zm8.25-1.16l-4.55,27.27,1.97,.33,4.55-27.27-1.97-.33Zm-3.56,26.44h-9.23v2h9.23v-2Zm-8.25,1.17l2.49-14.84-1.97-.33-2.49,14.84,1.97,.33Zm.67-15.57l-10.09,14.84,1.65,1.12,10.09-14.84-1.65-1.12Zm-9.26,14.41h-9.23v2h9.23v-2Zm-8.25,1.16l4.55-27.27-1.97-.33-4.55,27.27,1.97,.33Zm3.56-26.44h9.23v-2h-9.23v2Zm8.25-1.17l-2.49,14.77,1.97,.33,2.49-14.77-1.97-.33Zm16.61,37.67l-.99-.17-.2,1.17h1.18v-1Zm6.29-37.5v-1h-.85l-.14,.83,.99,.17Zm9.73,0l.99,.16,.19-1.16h-1.18v1Zm-.78,4.76l-.99-.16-.19,1.16h1.18v-1Zm.21,0v1h.6l.28-.53-.88-.47Zm1.95-2.54l.69,.72h0l-.69-.72Zm2.88-1.86l.39,.92h0l-.39-.92Zm8.58,.73l-.55,.84h0l.55-.84Zm3.21,4.53l-.95,.32h0l.95-.32Zm.21,8.03l-.99-.16h0l.99,.16Zm-2.79,7.83l-.84-.54h0l.84,.54Zm-4.69,4.63l-.49-.87h0l.5,.87Zm-8.91,.91l-.41,.91h0l.4-.91Zm-2.25-1.72l-.79,.61h0l.79-.61Zm-1.17-2.49l.97-.22-.18-.78h-.8v1Zm-.21,0v-1h-.85l-.14,.84,.99,.16Zm-2.41,14.7v1h.85l.14-.84-.99-.16Zm3.76-23.86l.99,.16h0l-.99-.16Zm-.05,3.44l-.98,.18h0l.98-.18Zm1.12,2.24l-.69,.72h.02l.68-.72Zm4.62,.02l.58,.81h0l-.59-.81Zm1.81-2.22l.89,.46h0l-.89-.46Zm1.1-3.48l.99,.17h0v-.02l-.99-.16Zm.05-3.46l-.98,.18h0l.98-.18Zm-1.08-2.22l-.69,.72h0l.68-.72Zm-4.63,0l.57,.82h0l-.57-.82Zm-1.86,2.22l-.89-.46h0l.89,.46Zm-13.68,27.49l6.29-37.5-1.97-.33-6.29,37.5,1.97,.33Zm5.3-36.67h9.73v-2h-9.73v2Zm8.74-1.16l-.78,4.76,1.97,.32,.78-4.76-1.97-.32Zm.21,5.92h.21v-2h-.21v2Zm1.09-.53c.44-.83,1.03-1.59,1.76-2.29l-1.38-1.45c-.88,.84-1.59,1.77-2.14,2.79l1.76,.95Zm1.76-2.29c.72-.69,1.58-1.25,2.57-1.66l-.77-1.84c-1.21,.51-2.27,1.19-3.18,2.06l1.38,1.45Zm2.58-1.67c.97-.42,2.07-.63,3.3-.63v-2c-1.47,0-2.83,.26-4.08,.79l.78,1.84Zm3.3-.63c1.61,0,3.05,.43,4.33,1.27l1.1-1.67c-1.62-1.07-3.44-1.6-5.43-1.6v2Zm4.33,1.27c1.23,.81,2.18,2.11,2.82,4.01l1.9-.63c-.74-2.22-1.93-3.94-3.61-5.05l-1.1,1.67Zm2.82,4.01c.61,1.84,.71,4.34,.17,7.55l1.97,.33c.56-3.37,.51-6.23-.25-8.51l-1.9,.63Zm.17,7.55c-.5,3.05-1.4,5.52-2.64,7.45l1.68,1.08c1.43-2.21,2.4-4.96,2.93-8.21l-1.97-.33Zm-2.64,7.45c-1.25,1.96-2.71,3.38-4.34,4.3l.98,1.74c1.97-1.11,3.64-2.78,5.04-4.97l-1.68-1.08Zm-4.34,4.3c-1.65,.94-3.34,1.4-5.1,1.4v2c2.13,0,4.16-.56,6.09-1.66l-.99-1.74Zm-5.1,1.4c-1.17,0-2.14-.19-2.92-.54l-.81,1.83c1.09,.48,2.34,.71,3.73,.71v-2Zm-2.91-.53c-.81-.37-1.43-.85-1.88-1.43l-1.57,1.24c.68,.86,1.56,1.53,2.63,2.01l.83-1.82Zm-1.88-1.42c-.48-.62-.81-1.31-.99-2.1l-1.95,.45c.24,1.06,.7,2.02,1.36,2.87l1.58-1.22Zm-1.96-2.87h-.21v2h.21v-2Zm-1.2,.84l-2.41,14.7,1.97,.32,2.41-14.7-1.97-.32Zm-1.43,13.86h-9.84v2h9.84v-2Zm2.78-23.02c-.22,1.4-.25,2.67-.05,3.78l1.97-.36c-.15-.83-.14-1.85,.06-3.11l-1.97-.32Zm-.05,3.8c.22,1.11,.67,2.06,1.41,2.77l1.38-1.44c-.37-.36-.67-.9-.83-1.71l-1.96,.39Zm1.42,2.78c.78,.72,1.77,1.04,2.88,1.04v-2c-.69,0-1.17-.19-1.53-.52l-1.35,1.47Zm2.88,1.04c1.1,0,2.11-.32,3-.95l-1.16-1.63c-.54,.38-1.13,.58-1.83,.58v2Zm3.01-.96c.86-.63,1.56-1.5,2.11-2.57l-1.78-.92c-.44,.85-.95,1.46-1.51,1.87l1.18,1.61Zm2.11-2.57c.55-1.08,.95-2.34,1.2-3.76l-1.97-.35c-.22,1.27-.56,2.33-1.01,3.2l1.78,.91Zm1.2-3.78c.22-1.42,.25-2.7,.05-3.8l-1.97,.36c.15,.81,.14,1.85-.06,3.12l1.97,.31Zm.05-3.8c-.2-1.11-.64-2.07-1.38-2.77l-1.37,1.46c.34,.32,.63,.84,.78,1.67l1.97-.36Zm-1.38-2.76c-.77-.73-1.75-1.06-2.86-1.06v2c.7,0,1.15,.19,1.48,.5l1.38-1.45Zm-2.86-1.06c-1.11,0-2.13,.32-3.04,.96l1.15,1.64c.58-.4,1.2-.6,1.9-.6v-2Zm-3.04,.96c-.89,.62-1.61,1.5-2.18,2.58l1.77,.93c.45-.86,.97-1.46,1.55-1.86l-1.14-1.64Zm-2.18,2.58c-.56,1.08-.94,2.34-1.17,3.77l1.98,.31c.2-1.27,.53-2.32,.97-3.16l-1.78-.92Zm20.61,27.52l.18-.98h-.01l-.17,.98Zm-2.57-.69l-.9-.43-.46,.96,.98,.4,.37-.93Zm3.3-6.96l.35-.94-.86-.32-.39,.83,.9,.43Zm2.1,.55l-.13,.99h0l.13-.99Zm1.72-.14l-.34-.94h0l.34,.94Zm1.22-1.01l-.84-.54h0l.84,.54Zm.32-.5l.84,.54,.21-.33-.07-.38-.99,.17Zm-4.86-28.48v-1h-1.19l.2,1.17,.99-.17Zm9.87,0l1-.07-.06-.93h-.94v1Zm1.24,18.89l-1,.07,.06,.93h.94v-1Zm.28,0v1h.68l.25-.63-.93-.37Zm7.64-18.89v-1h-.67l-.25,.63,.93,.37Zm10.65,0l.89,.45,.73-1.45h-1.62v1Zm-14.84,29.55l.89,.45h0l-.89-.45Zm-2.84,4.05l-.72-.69h0l.73,.69Zm-4.15,2.86l-.39-.92h0l.39,.92Zm-5.9,.05c-1.08,0-2.08-.08-3-.25l-.36,1.97c1.05,.19,2.17,.28,3.36,.28v-2Zm-3.01-.25c-.93-.16-1.71-.37-2.37-.63l-.75,1.85c.82,.33,1.75,.58,2.78,.75l.33-1.97Zm-1.84,.72l3.3-6.96-1.81-.86-3.3,6.96,1.81,.86Zm2.05-6.45c.81,.3,1.59,.51,2.32,.6l.26-1.98c-.55-.07-1.17-.23-1.87-.49l-.7,1.87Zm2.32,.61c.77,.1,1.51,.05,2.18-.19l-.67-1.88c-.32,.11-.73,.16-1.26,.09l-.25,1.98Zm2.18-.19c.73-.26,1.31-.75,1.73-1.41l-1.68-1.08c-.21,.33-.46,.52-.72,.61l.67,1.88Zm1.73-1.41l.32-.5-1.68-1.08-.32,.5,1.68,1.08Zm.46-1.21l-4.86-28.48-1.97,.34,4.86,28.48,1.97-.34Zm-5.85-27.31h9.87v-2h-9.87v2Zm8.87-.93l1.24,18.89,2-.13-1.24-18.89-2,.13Zm2.24,19.83h.28v-2h-.28v2Zm1.21-.63l7.63-18.89-1.85-.75-7.64,18.89,1.85,.75Zm6.71-18.27h10.65v-2h-10.65v2Zm9.76-1.45l-14.84,29.55,1.79,.9,14.84-29.55-1.79-.9Zm-14.84,29.54c-.71,1.42-1.6,2.69-2.67,3.81l1.45,1.38c1.21-1.27,2.21-2.7,3.01-4.29l-1.79-.9Zm-2.68,3.82c-1.02,1.1-2.29,1.97-3.81,2.62l.78,1.84c1.76-.75,3.27-1.78,4.5-3.1l-1.46-1.36Zm-3.81,2.62c-1.49,.63-3.32,.97-5.5,.97v2c2.38,0,4.49-.36,6.29-1.13l-.78-1.84ZM7.22,128.5v-1h-.85l-.14,.84,.99,.16Zm12.29,0l.97-.24-.19-.76h-.78v1Zm5.04,20.6l-.97,.24,.19,.76h.78v-1Zm.43,0v1h.58l.29-.5-.87-.5Zm11.86-20.6v-1h-.58l-.29,.5,.87,.5Zm12.29,0l.99,.16,.19-1.16h-1.18v1Zm-6.04,36.36v1h.85l.14-.84-.99-.16Zm-9.66,0l-.99-.16-.19,1.16h1.18v-1Zm3.48-21.02l.99,.16,.19-1.16h-1.18v1Zm-.28,0v-1h-.59l-.29,.51,.87,.49Zm-11.51,20.74v1h.59l.29-.51-.87-.49Zm-5.82,0l-.98,.22,.17,.78h.8v-1Zm-4.62-20.88l.98-.22-.17-.78h-.8v1Zm-.28,0v-1h-.85l-.14,.83,.99,.17Zm-3.55,21.16v1h.85l.14-.84-.99-.16Zm-9.66,0l-.99-.16-.19,1.16H1.18v-1Zm6.04-35.36h12.29v-2H7.22v2Zm11.32-.76l5.04,20.6,1.94-.48-5.04-20.6-1.94,.47Zm6.01,21.36h.43v-2h-.43v2Zm1.29-.5l11.86-20.6-1.73-1-11.86,20.6,1.73,1Zm10.99-20.1h12.29v-2h-12.29v2Zm11.3-1.16l-6.04,36.36,1.97,.33,6.04-36.36-1.97-.33Zm-5.05,35.53h-9.66v2h9.66v-2Zm-8.67,1.16l3.48-21.02-1.97-.33-3.48,21.02,1.97,.33Zm2.49-22.19h-.28v2h.28v-2Zm-1.16,.51l-11.51,20.74,1.75,.97,11.51-20.74-1.75-.97Zm-10.63,20.22h-5.82v2h5.82v-2Zm-4.85,.78l-4.62-20.88-1.95,.43,4.62,20.88,1.95-.43Zm-5.59-21.66h-.28v2h.28v-2Zm-1.27,.83l-3.55,21.17,1.97,.33,3.55-21.16-1.97-.33Zm-2.56,20.33H1.18v2H10.84v-2Zm-8.67,1.16l6.04-36.36-1.97-.33L.19,164.7l1.97,.33Zm57.1-12.66l-.99-.17,1.81,.73-.83-.56Zm10.09-14.77v-1h-.53l-.3,.44,.83,.56Zm9.23,0l.99,.16,.19-1.16h-1.18v1Zm-4.55,27.27v1h.85l.14-.84-.99-.16Zm-9.23,0l-.99-.16-.2,1.16h1.18v-1Zm2.49-14.84l.99,.16-1.81-.73,.83,.56Zm-10.09,14.84v1h.53l.3-.44-.83-.56Zm-9.23,0l-.99-.16-.19,1.16h1.18v-1Zm4.55-27.27v-1h-.85l-.14,.84,.99,.16Zm9.23,0l.99,.17,.2-1.17h-1.18v1Zm-1.66,15.34l10.09-14.77-1.65-1.13-10.09,14.77,1.65,1.13Zm9.26-14.34h9.23v-2h-9.23v2Zm8.25-1.16l-4.55,27.27,1.97,.33,4.55-27.27-1.97-.33Zm-3.56,26.44h-9.23v2h9.23v-2Zm-8.25,1.16l2.49-14.84-1.97-.33-2.49,14.84,1.97,.33Zm.67-15.57l-10.09,14.84,1.65,1.12,10.09-14.84-1.65-1.12Zm-9.26,14.41h-9.23v2h9.23v-2Zm-8.25,1.16l4.55-27.27-1.97-.33-4.55,27.27,1.97,.33Zm3.56-26.44h9.23v-2h-9.23v2Zm8.25-1.17l-2.49,14.77,1.97,.33,2.49-14.77-1.97-.33Zm16.61,37.67l-.99-.17-.2,1.17h1.18v-1Zm6.29-37.5v-1h-.85l-.14,.83,.99,.17Zm9.73,0l.99,.16,.19-1.16h-1.18v1Zm-.78,4.76l-.99-.16-.19,1.16h1.18v-1Zm.21,0v1h.6l.28-.53-.88-.47Zm1.95-2.54l.69,.72h0l-.69-.72Zm2.88-1.87l.39,.92h0l-.39-.92Zm8.58,.73l-.55,.84h0l.55-.84Zm3.21,4.53l-.95,.32h0l.95-.32Zm.21,8.03l-.99-.16h0l.99,.16Zm-2.79,7.83l-.84-.54h0l.84,.54Zm-4.69,4.63l-.49-.87h0l.5,.87Zm-8.91,.91l-.41,.91h0l.4-.91Zm-2.25-1.72l-.79,.61h0l.79-.61Zm-1.17-2.49l.97-.23-.18-.77h-.8v1Zm-.21,0v-1h-.85l-.14,.84,.99,.16Zm-2.41,14.7v1h.85l.14-.84-.99-.16Zm3.76-23.86l.99,.16h0l-.99-.16Zm-.05,3.44l-.98,.18h0l.98-.18Zm1.12,2.24l-.69,.72h.02l.68-.72Zm4.62,.02l.58,.81h0l-.59-.81Zm1.81-2.22l.89,.46h0l-.89-.46Zm1.1-3.48l.99,.17h0v-.02l-.99-.16Zm.05-3.46l-.98,.18h0l.98-.18Zm-1.08-2.22l-.69,.72h0l.68-.72Zm-4.63,0l.57,.82h0l-.57-.82Zm-1.86,2.22l-.89-.46h0l.89,.46Zm-13.68,27.49l6.29-37.5-1.97-.33-6.29,37.5,1.97,.33Zm5.3-36.67h9.73v-2h-9.73v2Zm8.74-1.16l-.78,4.76,1.97,.32,.78-4.76-1.97-.32Zm.21,5.92h.21v-2h-.21v2Zm1.09-.53c.44-.83,1.03-1.59,1.76-2.29l-1.38-1.45c-.88,.84-1.59,1.77-2.14,2.79l1.76,.95Zm1.76-2.29c.72-.69,1.58-1.25,2.57-1.66l-.77-1.85c-1.21,.51-2.27,1.19-3.18,2.06l1.38,1.45Zm2.58-1.67c.97-.42,2.07-.63,3.3-.63v-2c-1.47,0-2.83,.26-4.08,.79l.78,1.84Zm3.3-.63c1.61,0,3.05,.43,4.33,1.27l1.1-1.67c-1.62-1.07-3.44-1.6-5.43-1.6v2Zm4.33,1.27c1.23,.81,2.18,2.11,2.82,4.01l1.9-.63c-.74-2.22-1.93-3.94-3.61-5.05l-1.1,1.67Zm2.82,4.01c.61,1.84,.71,4.34,.17,7.55l1.97,.33c.56-3.37,.51-6.23-.25-8.5l-1.9,.63Zm.17,7.55c-.5,3.05-1.4,5.52-2.64,7.45l1.68,1.08c1.43-2.21,2.4-4.96,2.93-8.21l-1.97-.33Zm-2.64,7.46c-1.25,1.96-2.71,3.38-4.34,4.3l.98,1.74c1.97-1.11,3.64-2.78,5.04-4.96l-1.68-1.08Zm-4.34,4.3c-1.65,.94-3.34,1.4-5.1,1.4v2c2.13,0,4.16-.56,6.09-1.66l-.99-1.74Zm-5.1,1.4c-1.17,0-2.14-.19-2.92-.54l-.81,1.83c1.09,.48,2.34,.71,3.73,.71v-2Zm-2.91-.53c-.81-.37-1.43-.85-1.88-1.43l-1.57,1.24c.68,.86,1.56,1.53,2.63,2.01l.83-1.82Zm-1.88-1.43c-.48-.62-.81-1.31-.99-2.1l-1.95,.45c.24,1.06,.7,2.02,1.36,2.87l1.58-1.22Zm-1.96-2.87h-.21v2h.21v-2Zm-1.2,.84l-2.41,14.7,1.97,.32,2.41-14.7-1.97-.32Zm-1.43,13.86h-9.84v2h9.84v-2Zm2.78-23.02c-.22,1.4-.25,2.67-.05,3.78l1.97-.36c-.15-.83-.14-1.85,.06-3.11l-1.97-.32Zm-.05,3.8c.22,1.11,.67,2.06,1.41,2.77l1.38-1.45c-.37-.36-.67-.9-.83-1.71l-1.96,.39Zm1.42,2.78c.78,.72,1.77,1.04,2.88,1.04v-2c-.69,0-1.17-.19-1.53-.52l-1.35,1.48Zm2.88,1.04c1.1,0,2.11-.32,3-.95l-1.16-1.63c-.54,.38-1.13,.58-1.83,.58v2Zm3.01-.96c.86-.63,1.56-1.5,2.11-2.57l-1.78-.92c-.44,.85-.95,1.46-1.51,1.87l1.18,1.61Zm2.11-2.57c.55-1.08,.95-2.34,1.2-3.76l-1.97-.35c-.22,1.28-.56,2.34-1.01,3.2l1.78,.91Zm1.2-3.78c.22-1.42,.25-2.7,.05-3.8l-1.97,.36c.15,.81,.14,1.85-.06,3.12l1.97,.31Zm.05-3.8c-.2-1.11-.64-2.07-1.38-2.77l-1.37,1.46c.34,.32,.63,.84,.78,1.67l1.97-.36Zm-1.38-2.76c-.77-.73-1.75-1.06-2.86-1.06v2c.7,0,1.15,.19,1.48,.5l1.38-1.45Zm-2.86-1.06c-1.11,0-2.13,.32-3.04,.96l1.15,1.64c.58-.4,1.2-.6,1.9-.6v-2Zm-3.04,.96c-.89,.62-1.61,1.49-2.18,2.58l1.77,.93c.45-.86,.97-1.46,1.55-1.86l-1.14-1.64Zm-2.18,2.58c-.56,1.08-.94,2.34-1.17,3.77l1.98,.31c.2-1.27,.53-2.32,.97-3.16l-1.78-.92Z"/></g></g></g></g></svg>